<?xml version="1.0" encoding="UTF-8"?>
<svg width="497px" height="496px" viewBox="0 0 497 496" version="1.1" xmlns="http://www.w3.org/2000/svg" xmlns:xlink="http://www.w3.org/1999/xlink">
    <!-- Generator: Sketch 60 (88103) - https://sketch.com -->
    <title>Artboard</title>
    <desc>Created with Sketch.</desc>
    <g id="Artboard" stroke="none" stroke-width="1" fill="none" fill-rule="evenodd">
        <g id="location" fill-rule="nonzero">
            <polygon id="Path" fill="#B2B0B2" points="24 216 408 216 408 488 24 488"></polygon>
            <polygon id="Path" fill="#EDEBED" points="24 216 384 216 384 488 24 488"></polygon>
            <path d="M232.024,136 C232.488,159.328 239.76,183.136 255.208,204.832 L263.616,216 L264,216 L8,216 L8,136 L232,136 L232.024,136 Z" id="Path" fill="#0051AA"></path>
            <path d="M200.024,136 L200,136 L8,136 L8,216 L231.616,216 L223.208,204.832 C207.752,183.136 200.488,159.328 200.024,136 Z" id="Path" fill="#027BFF"></path>
            <path d="M360,8 C463.288,8 523.888,121.832 464.792,204.832 L360,360 L255.208,204.832 C196.112,121.832 256.712,8 360,8 Z" id="Path" fill="#B2B0B2"></path>
            <polygon id="Path" fill="#747474" points="136 344 216 344 216 488 136 488"></polygon>
            <polygon id="Path" fill="#B2B0B2" points="136 344 192 344 192 488 136 488"></polygon>
            <polygon id="Path" fill="#747474" points="216 344 296 344 296 488 216 488"></polygon>
            <polygon id="Path" fill="#B2B0B2" points="216 344 272 344 272 488 216 488"></polygon>
            <polygon id="Path" fill="#0051AA" points="296 408 408 408 408 488 296 488"></polygon>
            <polygon id="Path" fill="#027BFF" points="296 408 384 408 384 488 296 488"></polygon>
            <polygon id="Path" fill="#0051AA" points="24 408 136 408 136 488 24 488"></polygon>
            <polygon id="Path" fill="#027BFF" points="24 408 112 408 112 488 24 488"></polygon>
            <path d="M296,496 L136,496 C131.576,496 128,492.424 128,488 L128,344 C128,339.576 131.576,336 136,336 L296,336 C300.424,336 304,339.576 304,344 L304,488 C304,492.424 300.424,496 296,496 Z M144,480 L288,480 L288,352 L144,352 L144,480 Z" id="Shape" fill="#000000"></path>
            <polygon id="Path" fill="#78ADBF" points="88 248 216 248 216 312 88 312"></polygon>
            <polygon id="Path" fill="#A0E6FF" points="88 248 192 248 192 312 88 312"></polygon>
            <polygon id="Path" fill="#78ADBF" points="288 248.384 335.904 312 216 312 216 248 289 248"></polygon>
            <polygon id="Path" fill="#A0E6FF" points="265 248 216 248 216 312 311.904 312 264 248.384"></polygon>
            <circle id="Oval" fill="#027BFF" cx="360" cy="136" r="96"></circle>
            <path d="M408,496 L24,496 C19.576,496 16,492.424 16,488 L16,216 L32,216 L32,480 L400,480 L400,288 L416,288 L416,488 C416,492.424 412.424,496 408,496 Z" id="Path" fill="#000000"></path>
            <path d="M264,224 L8,224 C3.576,224 0,220.416 0,216 L0,136 C0,131.584 3.576,128 8,128 L232,128 L232,144 L16,144 L16,208 L264,208 L264,224 Z" id="Path" fill="#000000"></path>
            <path d="M328,320 L88,320 C83.576,320 80,316.424 80,312 L80,248 C80,243.584 83.576,240 88,240 L289,240 L289,256 L96,256 L96,304 L328,304 L328,320 Z" id="Path" fill="#000000"></path>
            <polygon id="Path" fill="#000000" points="208 344 224 344 224 488 208 488"></polygon>
            <polygon id="Path" fill="#000000" points="176 400 192 400 192 432 176 432"></polygon>
            <polygon id="Path" fill="#000000" points="240 400 256 400 256 432 240 432"></polygon>
            <polygon id="Path" fill="#000000" points="24 400 136 400 136 416 24 416"></polygon>
            <polygon id="Path" fill="#000000" points="296 400 408 400 408 416 296 416"></polygon>
            <polygon id="Path" fill="#000000" points="208 248 224 248 224 312 208 312"></polygon>
            <path d="M360,48 C311.48,48 272,87.48 272,136 C272,184.52 311.48,224 360,224 C408.52,224 448,184.52 448,136 C448,87.48 408.52,48 360,48 Z" id="Shape" fill="#027BFF"></path>
            <path d="M360,368 C357.344,368 354.856,366.68 353.368,364.48 L248.568,209.312 C219.568,168.584 215.88,117.608 238.816,73.12 C262.072,28.016 308.504,0 360,0 C411.496,0 457.928,28.016 481.176,73.12 C504.112,117.608 500.424,168.584 471.312,209.472 L366.632,364.48 C365.144,366.68 362.656,368 360,368 Z M360,16 C313.832,16 273.84,40.096 253.04,80.448 C232.896,119.512 236.152,164.272 261.72,200.192 L360,345.704 L458.168,200.36 C483.856,164.28 487.104,119.52 466.968,80.456 C446.16,40.096 406.168,16 360,16 Z" id="Shape" fill="#000000"></path>
        </g>
        <g id="mask" transform="translate(301.000000, 74.000000)" fill-rule="nonzero">
            <path d="M102.735365,52 L100.282408,48.888924 L109.128143,37.6699122 C113.101945,32.743596 114.681456,25.4886137 113.263783,18.6741535 C111.84611,11.8596934 107.650055,6.53748218 102.277229,4.73897964 C96.904403,2.94047709 91.1840348,4.94325962 87.2995586,9.98287576 L78.4538241,21.2018876 L76,18.0916366 L84.8457345,6.8726247 C92.2472746,-2.34897265 104.125604,-2.28209539 111.4623,7.02248105 C118.798997,16.3270575 118.852401,31.3922942 111.581967,40.7801632 L102.735365,52 Z" id="Path" fill="#EDEDED"></path>
            <path d="M18.8505197,122 C11.2265391,121.999258 4.35346223,116.622466 1.43571009,108.376351 C-1.48204205,100.130235 0.130024221,90.6384234 5.52031845,84.3262635 L14.3406784,74 L16.7861664,76.8630072 L7.96580647,87.1905362 C2.07127981,94.2504909 2.12637162,105.548769 8.0893623,112.529477 C14.052353,119.510185 23.7029792,119.574121 29.7330711,112.672869 L38.554512,102.346606 L41,105.209613 L32.1796401,115.537142 C28.6521754,119.689042 23.8525093,122.016214 18.8505197,122 L18.8505197,122 Z" id="Path" fill="#EDEDED"></path>
            <polygon id="Path" fill="#FFFFFF" points="3 76.9999808 72.3912853 7 117 52.0000192 47.6087147 122"></polygon>
            <path d="M117,52.260521 L47.1719252,122 L18,92.8650873 C46.8944833,80.4863298 77.1169469,61.8621529 99.7175515,35 L117,52.260521 Z" id="Path" fill="#D5D5D5"></path>
            <g id="Group" transform="translate(14.000000, 18.000000)" fill="#C9C9C9">
                <polygon id="Path" transform="translate(46.482950, 46.500000) rotate(-45.000000) translate(-46.482950, -46.500000) " points="-2.61115511 44.0206845 95.5770551 44.0206845 95.5770551 48.9793155 -2.61115511 48.9793155"></polygon>
                <polygon id="Path" transform="translate(56.400780, 56.420000) rotate(-45.000000) translate(-56.400780, -56.420000) " points="7.30667489 53.9406845 105.494885 53.9406845 105.494885 58.8993155 7.30667489 58.8993155"></polygon>
                <polygon id="Path" transform="translate(36.564955, 36.580112) rotate(-45.000000) translate(-36.564955, -36.580112) " points="-12.528958 34.1008333 85.658864 34.1007591 85.6588677 39.0593908 -12.5289542 39.0594651"></polygon>
            </g>
        </g>
    </g>
</svg>