<?xml version="1.0" encoding="UTF-8"?>
<svg width="424px" height="424px" viewBox="0 0 424 424" version="1.1" xmlns="http://www.w3.org/2000/svg" xmlns:xlink="http://www.w3.org/1999/xlink">
    <!-- Generator: Sketch 60 (88103) - https://sketch.com -->
    <title>Artboard</title>
    <desc>Created with Sketch.</desc>
    <g id="Artboard" stroke="none" stroke-width="1" fill="none" fill-rule="evenodd">
        <rect id="Rectangle" fill="#F2F2F2" x="0" y="0" width="424" height="424" rx="104"></rect>
        <path d="M211.995488,0 L320,0 C377.437614,-1.05511185e-14 424,46.562386 424,104 L424,320 C424,377.437614 377.437614,424 320,424 L211.995488,424 L211.995488,424 L211.995488,0 Z" id="Rectangle" fill="#D1D1D1"></path>
        <g id="hospital" transform="translate(74.000000, 74.000000)" fill-rule="nonzero">
            <path d="M274.547,148.015 C269.827,170.855 249.468,187.434 226.148,187.434 L187.429,187.434 L187.429,226.153 C187.429,241.083 180.789,255.052 169.209,264.482 C160.289,271.742 149.319,275.592 138.07,275.592 L138,275.592 C134.67,275.592 131.32,275.252 127.98,274.552 C105.15,269.822 88.571,249.473 88.571,226.153 L88.571,187.434 L49.852,187.434 C26.522,187.434 6.683,171.524 1.603,148.755 C-1.677,134.035 1.853,118.846 11.283,107.086 C20.713,95.316 34.773,88.576 49.852,88.576 L88.571,88.576 L88.571,49.857 C88.571,26.517 104.471,6.688 127.25,1.608 C130.82,0.818 134.43,0.418 138,0.407920628 C149.14,0.388 160.01,4.148 168.919,11.288 C180.679,20.718 187.429,34.778 187.429,49.857 L187.429,88.576 L226.148,88.576 C241.078,88.576 255.047,95.216 264.477,106.796 C273.907,118.365 277.577,133.395 274.547,148.015 Z" id="Path" fill="#027BFF"></path>
            <path d="M274.547,148.015 C269.827,170.855 249.468,187.434 226.148,187.434 L187.429,187.434 L187.429,226.153 C187.429,241.083 180.789,255.052 169.209,264.482 C160.289,271.742 149.319,275.592 138.07,275.592 L138,275.592 L138,0.407920628 C149.14,0.388 160.01,4.148 168.919,11.288 C180.679,20.718 187.429,34.778 187.429,49.857 L187.429,88.576 L226.148,88.576 C241.078,88.576 255.047,95.216 264.477,106.796 C273.907,118.365 277.577,133.395 274.547,148.015 Z" id="Path" fill="#004FA5"></path>
        </g>
    </g>
</svg>